#N canvas 53 35 1320 798 10;
#X declare -lib mrpeach;
#X obj 535 368 phasor~;
#N canvas 0 22 450 300 (subpatch) 0;
#X array bartlett 1024 float 4;
#X coords 0 1 1023 0 40 30 1;
#X restore 351 587 graph;
#X obj 534 398 *~;
#X obj 764 625 tgl 15 0 empty empty empty 17 7 0 10 -262144 -1 -1 1
1;
#X obj 764 669 s \$0-met;
#X obj 542 124 hsl 128 15 20 1000 0 0 empty empty empty -2 -8 0 10
-262144 -1 -1 1361 1;
#X text 677 122 < grain size (ms);
#X obj 232 588 hsl 95 100 0 3.34232e+06 0 0 empty \$0-ph empty -2 -8
0 10 -262144 -1 -1 0 1;
#X obj 764 646 metro 100;
#N canvas 0 22 450 278 (subpatch) 0;
#X array array1 3.34232e+06 float 4;
#X coords 0 1 3.34232e+06 -1 100 100 1 0 0;
#X restore 229 588 graph;
#X msg 378 236 set \$1;
#X obj 456 253 s \$0-ph;
#X obj 378 202 r \$0-met;
#X obj 326 202 r~ \$0-pp;
#X obj 378 219 snapshot~;
#X obj 456 217 r \$0-fs;
#X obj 764 602 loadbang;
#X obj 580 220 *~;
#X obj 580 203 vline~;
#X msg 580 186 \$1 500;
#N canvas 511 23 1074 794 playback 1;
#X obj 389 372 soundfiler;
#X floatatom 384 394 10 0 0 0 - - -;
#X obj 322 424 *~;
#X obj 322 368 phasor~;
#X msg 114 298 44100;
#X floatatom 114 272 5 0 0 0 - - -;
#X obj 322 344 *~ 1;
#X obj 225 437 s~ \$0-pp;
#X text 217 268 < playback rate/direction;
#X floatatom 204 379 10 0 0 0 - - -;
#X obj 204 357 Snapshot~ 50;
#X obj 322 564 samphold~;
#X obj 277 605 outlet~;
#X obj 373 525 inlet~;
#X obj 114 168 inlet;
#X obj 102 541 samphold~;
#X obj 102 469 noise~;
#X obj 277 581 +~;
#X text 40 511 spread >;
#X floatatom 61 605 5 0 0 0 - - -;
#X obj 61 580 unsig~;
#X obj 102 564 +~ 100000;
#X floatatom 114 405 5 0 0 0 - - -;
#X obj 114 357 unsig~;
#X obj 114 320 /~ 37854;
#X obj 383 417 s \$0-fs;
#X obj 441 415 s fs2;
#X obj 159 285 r fs2;
#X obj 114 221 maxlib/scale -100 100 -1 1 0;
#X obj 153 460 maxlib/scale 0 100 0 4100 0;
#X obj 102 511 *~ 100000;
#X obj 389 291 loadbang;
#X obj 195 406 loadbang;
#X obj 153 437 inlet;
#X msg 189 428 0;
#X obj 389 315 bng 15 250 50 0 empty empty empty 17 7 0 10 -262144
-1 -1;
#X msg 389 344 read -resize audio.wav array1;
#X text 575 342 < you can change audio file here;
#X text 326 459 < scales to sample rate. change sample rate;
#X text 15 295 sample rate >;
#X connect 0 0 1 0;
#X connect 1 0 2 1;
#X connect 1 0 25 0;
#X connect 1 0 26 0;
#X connect 2 0 7 0;
#X connect 2 0 11 0;
#X connect 3 0 2 0;
#X connect 4 0 24 0;
#X connect 5 0 4 0;
#X connect 5 0 6 1;
#X connect 6 0 3 0;
#X connect 6 0 10 0;
#X connect 10 0 9 0;
#X connect 11 0 17 1;
#X connect 13 0 11 1;
#X connect 13 0 15 1;
#X connect 14 0 28 0;
#X connect 15 0 21 0;
#X connect 16 0 30 0;
#X connect 17 0 12 0;
#X connect 20 0 19 0;
#X connect 21 0 17 0;
#X connect 21 0 20 0;
#X connect 23 0 22 0;
#X connect 24 0 6 0;
#X connect 24 0 23 0;
#X connect 27 0 24 1;
#X connect 28 0 5 0;
#X connect 29 0 30 1;
#X connect 30 0 15 0;
#X connect 31 0 35 0;
#X connect 32 0 34 0;
#X connect 33 0 29 0;
#X connect 34 0 29 0;
#X connect 35 0 36 0;
#X connect 36 0 0 0;
#X restore 229 385 pd playback;
#X obj 232 287 hsl 128 15 -100 100 0 0 empty empty empty -2 -8 0 10
-262144 -1 -1 12700 1;
#N canvas 604 176 707 476 gs 0;
#X text 303 219 < grain size (rate hz);
#X text 255 177 < samp to rate;
#X obj 144 181 expr~ 44100 / $v1;
#X obj 144 150 expr~ $v1 * 44.1;
#X text 185 2 < grain size (ms);
#X text 257 151 < ms to samples;
#X obj 144 107 vline~;
#X obj 143 -20 inlet;
#X obj 144 277 outlet~;
#X obj 301 125 outlet~;
#X obj 80 198 unsig~;
#X floatatom 80 220 5 0 0 0 - - -;
#X floatatom 143 3 5 0 0 0 - - -;
#X msg 143 69 \$1 50;
#X text 450 4 ms -> samp = ms * 44.1;
#X text 449 -13 samp -> rate (hz) = 44100 / sample size;
#X text 189 109 comment;
#X text 209 92 comment;
#X obj 424 42 r~ \$0-gp;
#X obj 361 72 samphold~;
#X obj 325 1 noise~;
#X obj 325 21 abs~;
#X obj 362 104 unsig~ 64;
#X floatatom 364 134 5 0 0 0 - - -;
#X obj 325 43 *~ 50000;
#X connect 2 0 8 0;
#X connect 2 0 10 0;
#X connect 3 0 2 0;
#X connect 6 0 9 0;
#X connect 6 0 3 0;
#X connect 7 0 12 0;
#X connect 10 0 11 0;
#X connect 12 0 13 0;
#X connect 13 0 6 0;
#X connect 18 0 19 1;
#X connect 19 0 22 0;
#X connect 20 0 21 0;
#X connect 21 0 24 0;
#X connect 22 0 23 0;
#X connect 24 0 19 0;
#X restore 535 203 pd gs;
#N canvas 480 104 1182 677 overlap 1;
#X obj 46 47 inlet~;
#X obj 181 27 inlet~;
#X obj 136 455 outlet~;
#X obj 137 278 tabread4~ array1;
#X obj 136 230 +~;
#X obj 137 316 *~;
#X obj 243 199 tabread~ bartlett;
#X obj 243 174 *~ 1024;
#X obj 137 355 *~ 2;
#X obj 187 157 wrap~;
#X obj 136 184 samphold~;
#X obj 187 130 +~ 0.5;
#X obj 83 167 r~ \$0-pp;
#X text 239 129 < overlapping grain;
#X obj 96 94 *~;
#X obj 137 250 expr~ fmod($v1 \, $v2);
#X obj 260 227 r \$0-fs;
#X connect 0 0 14 1;
#X connect 1 0 11 0;
#X connect 3 0 5 0;
#X connect 4 0 15 0;
#X connect 5 0 8 0;
#X connect 6 0 5 1;
#X connect 7 0 6 0;
#X connect 8 0 2 0;
#X connect 9 0 7 0;
#X connect 9 0 10 1;
#X connect 9 0 14 0;
#X connect 10 0 4 0;
#X connect 11 0 9 0;
#X connect 12 0 10 0;
#X connect 14 0 4 1;
#X connect 15 0 3 0;
#X connect 16 0 15 1;
#X restore 579 398 pd overlap;
#N canvas 320 60 554 658 mod 0;
#X obj 94 68 inlet~;
#X obj 236 67 inlet~;
#X obj 329 59 inlet~;
#X obj 164 190 +~;
#X text 195 186 < we are just adding 'in-time' location for grains
played back at different speeds/phasor rates;
#X obj 160 398 tabread4~ array1;
#X obj 160 424 *~;
#X obj 322 262 *~ 1024;
#X text 323 234 < there's only 1 fmod!;
#X obj 160 496 *~ 2;
#X floatatom 73 227 10 0 0 0 - - -;
#X obj 73 207 Snapshot~ 50;
#X obj 160 563 outlet~;
#X obj 390 101 r \$0-fs;
#X floatatom 376 153 5 0 0 0 - - -;
#X obj 162 236 expr~ fmod($v1 \, $v2);
#X obj 215 312 outlet~;
#X obj 322 285 tabread~ bartlett;
#X connect 0 0 3 0;
#X connect 1 0 3 1;
#X connect 2 0 7 0;
#X connect 3 0 11 0;
#X connect 3 0 15 0;
#X connect 3 0 16 0;
#X connect 5 0 6 0;
#X connect 6 0 9 0;
#X connect 7 0 17 0;
#X connect 9 0 12 0;
#X connect 11 0 10 0;
#X connect 13 0 14 0;
#X connect 14 0 15 1;
#X connect 15 0 5 0;
#X connect 17 0 6 1;
#X restore 534 416 pd mod;
#X text 654 145 < pitch deviation;
#N canvas 392 22 923 645 envswitch 0;
#X obj 136 243 bng 15 250 50 0 empty empty empty 17 7 0 10 -262144
-1 -1;
#X obj 136 225 spigot;
#X obj 190 115 inlet;
#X obj 144 291 t f f;
#X obj 144 345 - 1;
#X obj 144 371 expr 1-abs($f1);
#X obj 99 268 Uzi 1024;
#X obj 144 319 / 512;
#X obj 144 396 tabwrite bartlett;
#X floatatom 182 159 5 0 0 0 - - -;
#X obj 484 239 bng 15 250 50 0 empty empty empty 17 7 0 10 -262144
-1 -1;
#X obj 484 221 spigot;
#X obj 89 183 loadbang;
#X obj 373 290 t f f;
#X obj 373 428 expr 0.5+0.5*cos($f1);
#X obj 373 344 - 1;
#X obj 373 402 *;
#X obj 400 385 pi;
#X obj 373 367 t f b;
#X obj 322 265 Uzi 1024;
#X obj 373 318 / 512;
#X obj 373 454 tabwrite bartlett;
#X obj 322 247 bng 15 250 50 0 empty empty empty 17 7 0 10 -262144
-1 -1;
#X obj 322 229 spigot;
#X obj 533 295 t f f;
#X obj 533 349 - 1;
#X obj 533 375 expr exp(-1*(pow(($f2*$f1) \, 2)));
#X text 744 287 Variable position;
#X obj 482 270 Uzi 1024;
#X obj 534 323 / 512;
#X obj 533 403 tabwrite bartlett;
#X obj 718 325 loadbang;
#X msg 721 352 2;
#X text 206 251 bartlett;
#X text 386 230 hanning;
#X text 568 223 gaussian;
#X obj 137 207 == 1;
#X obj 323 211 == 2;
#X obj 485 203 == 3;
#X connect 0 0 6 0;
#X connect 1 0 0 0;
#X connect 2 0 9 0;
#X connect 3 0 7 0;
#X connect 3 1 8 1;
#X connect 4 0 5 0;
#X connect 5 0 8 0;
#X connect 6 2 3 0;
#X connect 7 0 4 0;
#X connect 9 0 36 0;
#X connect 9 0 37 0;
#X connect 9 0 38 0;
#X connect 10 0 28 0;
#X connect 11 0 10 0;
#X connect 12 0 0 0;
#X connect 13 0 20 0;
#X connect 13 1 21 1;
#X connect 14 0 21 0;
#X connect 15 0 18 0;
#X connect 16 0 14 0;
#X connect 17 0 16 1;
#X connect 18 0 16 0;
#X connect 18 1 17 0;
#X connect 19 2 13 0;
#X connect 20 0 15 0;
#X connect 22 0 19 0;
#X connect 23 0 22 0;
#X connect 24 0 29 0;
#X connect 24 1 30 1;
#X connect 25 0 26 0;
#X connect 26 0 30 0;
#X connect 28 2 24 0;
#X connect 29 0 25 0;
#X connect 31 0 32 0;
#X connect 32 0 26 1;
#X connect 36 0 1 1;
#X connect 36 0 1 0;
#X connect 37 0 23 1;
#X connect 37 0 23 0;
#X connect 38 0 11 1;
#X connect 38 0 11 0;
#X restore 347 671 pd envswitch;
#X text 315 315 < jitter spread;
#X text 375 284 < playback speed;
#X msg 456 235 range 0 \$1;
#X obj 623 320 s~ \$0-gp;
#X obj 975 361 grambidec~;
#X obj 865 505 grambidec~ oct;
#X obj 865 520 dac~ 1 8 7 6 5 4 3 2;
#X obj 865 453 grambipan~ 3;
#X obj 790 341 pink~;
#X obj 811 370 *~ 0.2;
#X obj 900 343 phasor~ 1;
#X obj 844 233 grambipan~ 1;
#X obj 844 261 grambidec~ stereo;
#X obj 844 278 dac~ 1 2;
#X obj 156 -27 import mrpeach;
#X obj 72 -28 dumpOSC 12000;
#X obj 70 45 s ps;
#X obj 229 221 r ps;
#X obj 580 142 r p;
#X obj 160 35 s p;
#X obj 250 316 r jitter;
#X obj 113 89 s jitter;
#X obj 535 91 r grainsize;
#X obj 203 62 s grainsize;
#X obj 579 165 maxlib/scale 0.25 2 22.05 96 0;
#X text 487 428 rate;
#X obj 658 84 loadbang;
#X obj 249 39 s source;
#X obj 534 512 grambipan~ 1;
#X obj 534 529 grambidec~ stereo;
#X obj 534 549 dac~ 1 2;
#X obj 626 458 grambipan~ 1;
#X obj 626 476 grambidec~ stereo;
#X obj 626 493 dac~ 1 2;
#X msg 624 143 1;
#X msg 613 102 125;
#X obj 252 248 loadbang;
#X msg 252 266 100;
#X msg 547 461 az \$1;
#X obj 668 398 hsl 128 15 0 1 0 0 empty empty empty -2 -8 0 10 -262144
-1 -1 0 1;
#X obj 665 417 expr 1-$f1;
#X msg 663 438 az \$1;
#X obj 294 20 s pan;
#X obj 669 362 r pan;
#X obj 71 -9 routeOSC /ps /jitter /pitch /grainsize /source /pan /gw
/dsp;
#X floatatom 338 28 5 0 0 0 - - -;
#X obj 338 57 s gw;
#X obj 347 625 r gw;
#X text 79 -71 Andrew Kihs 2016;
#X text 455 537 comment;
#X text 82 -52;
#X text 90 363 here to change audio file + sample rate >;
#X connect 0 0 2 0;
#X connect 0 0 20 2;
#X connect 0 0 23 1;
#X connect 0 0 24 2;
#X connect 0 0 30 0;
#X connect 2 0 24 1;
#X connect 3 0 8 0;
#X connect 5 0 22 0;
#X connect 8 0 4 0;
#X connect 10 0 11 0;
#X connect 12 0 14 0;
#X connect 13 0 14 0;
#X connect 14 0 10 0;
#X connect 15 0 29 0;
#X connect 16 0 3 0;
#X connect 17 0 2 1;
#X connect 17 0 23 0;
#X connect 18 0 17 1;
#X connect 19 0 18 0;
#X connect 20 0 24 0;
#X connect 21 0 20 0;
#X connect 22 0 0 0;
#X connect 22 0 55 1;
#X connect 22 0 58 1;
#X connect 22 1 17 0;
#X connect 23 0 58 0;
#X connect 24 0 55 0;
#X connect 29 0 11 0;
#X connect 32 0 33 0;
#X connect 32 1 33 1;
#X connect 32 2 33 2;
#X connect 32 3 33 3;
#X connect 32 4 33 4;
#X connect 32 5 33 5;
#X connect 32 6 33 6;
#X connect 32 7 33 7;
#X connect 34 0 32 0;
#X connect 34 1 32 1;
#X connect 34 2 32 2;
#X connect 34 3 32 3;
#X connect 34 4 32 4;
#X connect 34 5 32 5;
#X connect 34 6 32 6;
#X connect 35 0 36 0;
#X connect 37 0 34 1;
#X connect 38 0 39 0;
#X connect 38 1 39 1;
#X connect 38 2 39 2;
#X connect 38 3 39 3;
#X connect 39 0 40 0;
#X connect 39 1 40 1;
#X connect 42 0 71 0;
#X connect 44 0 21 0;
#X connect 45 0 51 0;
#X connect 47 0 20 1;
#X connect 49 0 5 0;
#X connect 49 0 22 0;
#X connect 51 0 19 0;
#X connect 53 0 61 0;
#X connect 53 0 62 0;
#X connect 55 0 56 0;
#X connect 55 1 56 1;
#X connect 55 2 56 2;
#X connect 55 3 56 3;
#X connect 56 0 57 0;
#X connect 56 1 57 1;
#X connect 58 0 59 0;
#X connect 58 1 59 1;
#X connect 58 2 59 2;
#X connect 58 3 59 3;
#X connect 59 0 60 0;
#X connect 59 1 60 1;
#X connect 61 0 51 0;
#X connect 62 0 5 0;
#X connect 63 0 64 0;
#X connect 64 0 21 0;
#X connect 65 0 55 0;
#X connect 66 0 65 0;
#X connect 66 0 67 0;
#X connect 67 0 68 0;
#X connect 68 0 58 0;
#X connect 70 0 66 0;
#X connect 71 0 43 0;
#X connect 71 1 48 0;
#X connect 71 2 46 0;
#X connect 71 3 50 0;
#X connect 71 4 54 0;
#X connect 71 5 69 0;
#X connect 71 6 72 0;
#X connect 72 0 73 0;
#X connect 74 0 26 0;
